<svg width="748" height="137" viewBox="0 0 748 137" fill="none" xmlns="http://www.w3.org/2000/svg">
<path opacity="0.5" fill-rule="evenodd" clip-rule="evenodd" d="M214.11 -137C214.11 -171.242 241.868 -199 276.11 -199L750 -199C784.242 -199 812 -171.242 812 -137L812 -70.7349C812 -53.2619 804.772 -37.4772 793.143 -26.2075C799.943 -16.2581 803.92 -4.226 803.92 8.73495L803.92 75C803.92 109.242 776.162 137 741.92 137L268.03 137C238.397 137 213.619 116.211 207.486 88.4217L62 88.4217C27.7583 88.4217 -4.44867e-08 60.6633 -3.86203e-08 26.4217L-2.65738e-08 -43.8916C-2.07074e-08 -78.1333 27.7583 -105.892 62 -105.892L214.11 -105.892L214.11 -137Z" fill="#004123"/>
</svg>
