<svg width="606" height="112" viewBox="0 0 606 112" fill="none" xmlns="http://www.w3.org/2000/svg">
<path opacity="0.5" fill-rule="evenodd" clip-rule="evenodd" d="M445.783 -76.0001C445.783 -110.242 418.025 -138 383.783 -138L62 -138C27.7584 -138 4.75563e-09 -110.242 1.06221e-08 -76L1.36316e-08 -58.4337C1.69682e-08 -38.9589 8.97894 -21.5813 23.0229 -10.2149C12.4871 0.898316 6.02417 15.9113 6.02417 32.4337L6.02417 50.0001C6.02417 84.2417 33.7825 112 68.0242 112L389.807 112C414.821 112 436.375 97.1874 446.175 75.8554L543.422 75.8554C577.663 75.8554 605.422 48.0971 605.422 13.8555L605.422 -6.72287C605.422 -40.9645 577.663 -68.7229 543.422 -68.7229L445.783 -68.7229L445.783 -76.0001Z" fill="#004123"/>
</svg>
