<svg width="472" height="170" viewBox="0 0 472 170" fill="none" xmlns="http://www.w3.org/2000/svg">
<path opacity="0.5" fill-rule="evenodd" clip-rule="evenodd" d="M331.62 138.529L410.191 138.529C444.084 138.529 471.559 111.054 471.559 77.1618C471.559 43.2694 444.084 15.7941 410.191 15.7941L336.215 15.7941C335.381 -17.3711 308.234 -44 274.868 -44L16.8089 -44C-17.0835 -44 -44.5588 -16.5248 -44.5588 17.3676C-44.5588 35.4839 -36.7087 51.7667 -24.2246 63C-36.7087 74.2333 -44.5588 90.5161 -44.5588 108.632C-44.5588 142.525 -17.0835 170 16.8089 170L278.015 170C301.053 170 321.126 157.305 331.62 138.529Z" fill="#004123"/>
</svg>
