<svg width="350" height="214" viewBox="0 0 350 214" fill="none" xmlns="http://www.w3.org/2000/svg">
<path opacity="0.5" fill-rule="evenodd" clip-rule="evenodd" d="M139.939 182.529L61.3677 182.529C27.4753 182.529 -2.65646e-08 155.054 -2.0758e-08 121.162C-1.49514e-08 87.2694 27.4752 59.7941 61.3677 59.7941L135.343 59.7941C136.178 26.6289 163.325 2.79815e-08 196.691 3.3698e-08L454.75 7.79098e-08C488.642 8.37164e-08 516.118 27.4752 516.118 61.3676C516.118 79.4839 508.268 95.7667 495.783 107C508.268 118.233 516.118 134.516 516.118 152.632C516.118 186.525 488.642 214 454.75 214L193.544 214C170.506 214 150.433 201.305 139.939 182.529Z" fill="#004123"/>
</svg>
